Coordinates
version=1
nRows=6
nColumns=38
inDegrees=yes

Units are S.I. units (second, meters, Newtons, ...)
Angles are in degrees.

endheader
time	pelvis_tilt	pelvis_list	pelvis_rotation	pelvis_tx	pelvis_ty	pelvis_tz	hip_flexion_r	hip_adduction_r	hip_rotation_r	knee_angle_r	ankle_angle_r	subtalar_angle_r	mtp_angle_r	hip_flexion_l	hip_adduction_l	hip_rotation_l	knee_angle_l	ankle_angle_l	subtalar_angle_l	mtp_angle_l	lumbar_extension	lumbar_bending	lumbar_rotation	arm_flex_r	arm_add_r	arm_rot_r	elbow_flex_r	pro_sup_r	wrist_flex_r	wrist_dev_r	arm_flex_l	arm_add_l	arm_rot_l	elbow_flex_l	pro_sup_l	wrist_flex_l	wrist_dev_l
      1.51000000	     -0.04654388	      2.12365816	     -6.17585429	      0.07464172	      0.94588619	     -0.23691095	     -4.18526861	     -2.74360029	     -1.00888625	    -43.71338168	     -4.61864480	      8.08218603	      0.00000000	     23.90244879	      5.80385729	      0.10674017	    -23.14167138	     -2.92958864	    -12.17864968	      0.00000000	    -10.86567018	     -4.44132583	      1.40743148	      6.22889200	     -7.78735422	     27.87457730	     53.89489196	     39.72928638	      0.00000000	      0.00000000	     -7.48377324	     -6.03745957	     14.69998303	     42.08521708	     39.72928638	      0.00000000	      0.00000000
      1.52000000	      0.23434855	      2.26329418	     -6.17038050	      0.08667784	      0.94803809	     -0.23759984	     -3.08043828	     -2.96455890	     -0.11994981	    -46.29380008	     -7.62412950	      8.74281158	      0.00000000	     22.85286225	      6.09242463	     -0.07858978	    -23.17878545	     -2.25947432	    -12.31662226	      0.00000000	    -11.17532220	     -4.71167692	      1.02722974	      5.78039696	     -7.68540620	     27.93906368	     53.73324980	     39.75079126	      0.00000000	      0.00000000	     -7.30218350	     -6.05738811	     14.72727816	     42.09145589	     39.75079126	      0.00000000	      0.00000000
      1.53000000	      0.30178046	      2.50078552	     -6.14881018	      0.09833729	      0.94972932	     -0.23837144	     -1.51370266	     -3.30666808	      0.55321753	    -49.25219284	     -8.26533450	      9.91293261	      0.00000000	     21.90063146	      6.42510981	     -0.44977059	    -22.84940778	     -1.79061002	    -12.07484155	      0.00000000	    -11.23187225	     -5.04661207	      0.64012516	      5.31831520	     -7.59741691	     27.98686392	     53.36366237	     39.80288145	      0.00000000	      0.00000000	     -6.97401594	     -6.10775195	     14.79152570	     42.08597700	     39.80288145	      0.00000000	      0.00000000
      1.54000000	      0.37011599	      2.66667428	     -6.17763433	      0.10981657	      0.95098119	     -0.23916613	     -0.05357357	     -3.61305450	      0.77623156	    -52.04502693	     -6.49199601	      9.75505536	      0.00000000	     21.00536717	      6.78980430	     -0.26745431	    -22.69362282	     -0.93392053	    -12.00026104	      0.00000000	    -11.33022896	     -5.24932629	      0.24098342	      5.02328770	     -7.56864692	     28.03128292	     53.15852059	     39.82488988	      0.00000000	      0.00000000	     -6.68152502	     -6.10658217	     14.82024308	     42.12588945	     39.82488988	      0.00000000	      0.00000000
      1.55000000	      0.37825274	      2.80994445	     -6.14879795	      0.12142871	      0.95200656	     -0.23988849	      1.54684493	     -3.71596222	      1.03881721	    -54.70226226	     -5.14768731	      8.65452525	      0.00000000	     20.25957770	      7.09808818	     -0.27071919	    -22.69328715	     -0.36516733	    -12.06414890	      0.00000000	    -11.34664757	     -5.42510825	     -0.21566927	      4.61777235	     -7.49137568	     28.12140903	     52.80310807	     39.86409172	      0.00000000	      0.00000000	     -6.42399632	     -6.18894581	     14.87927317	     42.15354732	     39.86409172	      0.00000000	      0.00000000
      1.56000000	      0.29856471	      2.87832785	     -6.29853050	      0.13248691	      0.95260872	     -0.24023831	      3.44388520	     -3.70707787	      1.30286138	    -57.21567202	     -4.97054004	      6.25014875	      0.00000000	     19.74604178	      7.29963883	     -0.16416350	    -22.94838654	      0.42403678	    -12.19559756	      0.00000000	    -11.29723172	     -5.52022665	     -0.48202495	      4.40055019	     -7.42300709	     28.23968450	     52.32737412	     39.92749967	      0.00000000	      0.00000000	     -6.12143560	     -6.25366357	     15.01528581	     42.23553381	     39.92749967	      0.00000000	      0.00000000
